<svg xmlns="http://www.w3.org/2000/svg" width="1200" height="600" viewBox="0 0 1200 600">
  <defs>
    <linearGradient id="bg" x1="0%" y1="100%" x2="100%" y2="0%">
      <stop offset="0%" stop-color="#6d1a8f"/>
      <stop offset="45%" stop-color="#c959dd"/>
      <stop offset="100%" stop-color="#ff2e54"/>
    </linearGradient>
    <radialGradient id="glow" cx="30%" cy="25%" r="60%">
      <stop offset="0%" stop-color="#fff" stop-opacity="0.22"/>
      <stop offset="100%" stop-color="#fff" stop-opacity="0"/>
    </radialGradient>
  </defs>
  <rect width="1200" height="600" fill="url(#bg)"/>
  <rect width="1200" height="600" fill="url(#glow)"/>
  <!-- Окно терминала -->
  <g>
    <rect x="240" y="140" width="720" height="320" rx="24" fill="#000" fill-opacity="0.35"/>
    <rect x="240" y="140" width="720" height="320" rx="24" fill="none" stroke="#fff" stroke-opacity="0.35" stroke-width="2"/>
    <circle cx="284" cy="180" r="8" fill="#fff" fill-opacity="0.5"/>
    <circle cx="312" cy="180" r="8" fill="#fff" fill-opacity="0.35"/>
    <circle cx="340" cy="180" r="8" fill="#fff" fill-opacity="0.2"/>
    <!-- Строки промпта -->
    <g fill="#fff">
      <path d="M286 240 L318 262 L286 284 L286 268 L302 262 L286 256 Z" fill-opacity="0.9"/>
      <rect x="338" y="252" width="320" height="18" rx="9" fill-opacity="0.75"/>
      <rect x="286" y="300" width="430" height="18" rx="9" fill-opacity="0.45"/>
      <rect x="286" y="348" width="360" height="18" rx="9" fill-opacity="0.45"/>
      <rect x="286" y="396" width="120" height="18" rx="9" fill-opacity="0.45"/>
      <rect x="424" y="392" width="14" height="26" rx="3" fill-opacity="0.9"/>
    </g>
  </g>
</svg>
