<svg xmlns="http://www.w3.org/2000/svg" viewBox="0 0 32 26"><g stroke="#142938" stroke-width="1.6" stroke-linejoin="round"><path d="M7 16 3 22 6 25M14 17 17 22 20 24M23 16 27 22 26 25" fill="none" stroke="#e3c99a" stroke-width="2.5"/><path d="M3 17C2 7 7 3 15 3c9 0 13 5 14 14Z" fill="#ff6e76"/><path d="M4 13C5 5 12 3 19 5l4 8Z" fill="#b58c58"/><path d="M5 13h22v6H5Z" fill="#ff6e76"/><path d="M13 4v9M7 9h13" fill="none" stroke="#f6e7c8" stroke-width="1.2"/><path d="m23 11 6 1-1 4h-5Z" fill="#ffd1bc"/></g></svg>