<svg xmlns="http://www.w3.org/2000/svg" width="1200" height="600" viewBox="0 0 1200 600">
  <defs>
    <linearGradient id="bg" x1="0%" y1="100%" x2="100%" y2="0%">
      <stop offset="0%" stop-color="#063a78"/>
      <stop offset="45%" stop-color="#0894ff"/>
      <stop offset="100%" stop-color="#c959dd"/>
    </linearGradient>
    <radialGradient id="glow" cx="70%" cy="30%" r="60%">
      <stop offset="0%" stop-color="#fff" stop-opacity="0.25"/>
      <stop offset="100%" stop-color="#fff" stop-opacity="0"/>
    </radialGradient>
  </defs>
  <rect width="1200" height="600" fill="url(#bg)"/>
  <rect width="1200" height="600" fill="url(#glow)"/>
  <g stroke="#fff" stroke-opacity="0.35" stroke-width="2" fill="none">
    <path d="M150 470 L340 320 L560 410 L780 250 L990 340 L1130 180"/>
    <path d="M340 320 L520 170 L780 250"/>
    <path d="M560 410 L760 520 L990 340"/>
    <path d="M150 470 L300 560 L560 410"/>
    <path d="M520 170 L720 80 L990 130 L1130 180"/>
  </g>
  <g fill="#fff">
    <circle cx="150" cy="470" r="10" fill-opacity="0.9"/>
    <circle cx="340" cy="320" r="14" fill-opacity="0.95"/>
    <circle cx="560" cy="410" r="11" fill-opacity="0.9"/>
    <circle cx="780" cy="250" r="16" fill-opacity="0.95"/>
    <circle cx="990" cy="340" r="10" fill-opacity="0.85"/>
    <circle cx="1130" cy="180" r="12" fill-opacity="0.9"/>
    <circle cx="520" cy="170" r="12" fill-opacity="0.9"/>
    <circle cx="720" cy="80" r="9" fill-opacity="0.8"/>
    <circle cx="990" cy="130" r="8" fill-opacity="0.75"/>
    <circle cx="300" cy="560" r="8" fill-opacity="0.75"/>
    <circle cx="760" cy="520" r="9" fill-opacity="0.8"/>
  </g>
</svg>
